<mxfile host="Electron" agent="Mozilla/5.0 (Windows NT 10.0; Win64; x64) AppleWebKit/537.36 (KHTML, like Gecko) draw.io/24.7.5 Chrome/126.0.6478.183 Electron/31.3.0 Safari/537.36" version="24.7.5">
  <diagram name="第 1 页" id="2DTL_xp5TsMvoLL3BC_T">
    <mxGraphModel dx="955" dy="1886" grid="1" gridSize="10" guides="1" tooltips="1" connect="1" arrows="1" fold="1" page="1" pageScale="1" pageWidth="827" pageHeight="1169" math="0" shadow="0">
      <root>
        <mxCell id="0" />
        <mxCell id="1" parent="0" />
        <mxCell id="QI3gRMH-cvcVh3Cv82Cy-36" value="&lt;div&gt;&lt;br&gt;&lt;/div&gt;&lt;div&gt;&lt;br&gt;&lt;/div&gt;&lt;div&gt;&lt;br&gt;&lt;/div&gt;&lt;div&gt;&lt;br&gt;&lt;/div&gt;&lt;div&gt;&lt;br&gt;&lt;/div&gt;GPMA" style="rounded=0;whiteSpace=wrap;html=1;" vertex="1" parent="1">
          <mxGeometry x="1590" y="181" width="180" height="140" as="geometry" />
        </mxCell>
        <mxCell id="QI3gRMH-cvcVh3Cv82Cy-5" style="edgeStyle=orthogonalEdgeStyle;rounded=0;orthogonalLoop=1;jettySize=auto;html=1;exitX=0.5;exitY=0;exitDx=0;exitDy=0;entryX=0.5;entryY=1;entryDx=0;entryDy=0;" edge="1" parent="1" source="QI3gRMH-cvcVh3Cv82Cy-1" target="QI3gRMH-cvcVh3Cv82Cy-4">
          <mxGeometry relative="1" as="geometry" />
        </mxCell>
        <mxCell id="QI3gRMH-cvcVh3Cv82Cy-19" style="edgeStyle=orthogonalEdgeStyle;rounded=0;orthogonalLoop=1;jettySize=auto;html=1;exitX=0.5;exitY=0;exitDx=0;exitDy=0;entryX=0.5;entryY=1;entryDx=0;entryDy=0;" edge="1" parent="1" source="QI3gRMH-cvcVh3Cv82Cy-1" target="QI3gRMH-cvcVh3Cv82Cy-18">
          <mxGeometry relative="1" as="geometry" />
        </mxCell>
        <mxCell id="QI3gRMH-cvcVh3Cv82Cy-1" value="common.h" style="rounded=0;whiteSpace=wrap;html=1;fillColor=#1ba1e2;fontColor=#ffffff;strokeColor=#006EAF;" vertex="1" parent="1">
          <mxGeometry x="414" y="390" width="90" height="40" as="geometry" />
        </mxCell>
        <mxCell id="QI3gRMH-cvcVh3Cv82Cy-6" style="edgeStyle=orthogonalEdgeStyle;rounded=0;orthogonalLoop=1;jettySize=auto;html=1;exitX=0.5;exitY=0;exitDx=0;exitDy=0;entryX=0.5;entryY=1;entryDx=0;entryDy=0;" edge="1" parent="1" source="QI3gRMH-cvcVh3Cv82Cy-2" target="QI3gRMH-cvcVh3Cv82Cy-4">
          <mxGeometry relative="1" as="geometry" />
        </mxCell>
        <mxCell id="QI3gRMH-cvcVh3Cv82Cy-2" value="defines.h" style="rounded=0;whiteSpace=wrap;html=1;fillColor=#1ba1e2;fontColor=#ffffff;strokeColor=#006EAF;" vertex="1" parent="1">
          <mxGeometry x="270" y="310" width="90" height="40" as="geometry" />
        </mxCell>
        <mxCell id="QI3gRMH-cvcVh3Cv82Cy-8" style="edgeStyle=orthogonalEdgeStyle;rounded=0;orthogonalLoop=1;jettySize=auto;html=1;exitX=0.5;exitY=0;exitDx=0;exitDy=0;entryX=0.5;entryY=1;entryDx=0;entryDy=0;" edge="1" parent="1" source="QI3gRMH-cvcVh3Cv82Cy-4" target="QI3gRMH-cvcVh3Cv82Cy-7">
          <mxGeometry relative="1" as="geometry" />
        </mxCell>
        <mxCell id="QI3gRMH-cvcVh3Cv82Cy-4" value="VertexSet.h" style="rounded=0;whiteSpace=wrap;html=1;fillColor=#1ba1e2;fontColor=#ffffff;strokeColor=#006EAF;" vertex="1" parent="1">
          <mxGeometry x="340" y="210" width="100" height="40" as="geometry" />
        </mxCell>
        <mxCell id="QI3gRMH-cvcVh3Cv82Cy-10" style="edgeStyle=orthogonalEdgeStyle;rounded=0;orthogonalLoop=1;jettySize=auto;html=1;exitX=0.5;exitY=0;exitDx=0;exitDy=0;entryX=0.5;entryY=1;entryDx=0;entryDy=0;" edge="1" parent="1" source="QI3gRMH-cvcVh3Cv82Cy-7" target="QI3gRMH-cvcVh3Cv82Cy-9">
          <mxGeometry relative="1" as="geometry" />
        </mxCell>
        <mxCell id="QI3gRMH-cvcVh3Cv82Cy-7" value="Graph.h" style="rounded=0;whiteSpace=wrap;html=1;fillColor=#1ba1e2;fontColor=#ffffff;strokeColor=#006EAF;" vertex="1" parent="1">
          <mxGeometry x="343" y="130" width="94" height="40" as="geometry" />
        </mxCell>
        <mxCell id="QI3gRMH-cvcVh3Cv82Cy-9" value="GraphGPU.h" style="rounded=0;whiteSpace=wrap;html=1;fillColor=#a20025;fontColor=#ffffff;strokeColor=#6F0000;" vertex="1" parent="1">
          <mxGeometry x="430" y="-40" width="120" height="60" as="geometry" />
        </mxCell>
        <mxCell id="QI3gRMH-cvcVh3Cv82Cy-13" style="edgeStyle=orthogonalEdgeStyle;rounded=0;orthogonalLoop=1;jettySize=auto;html=1;exitX=0.5;exitY=0;exitDx=0;exitDy=0;entryX=0.5;entryY=1;entryDx=0;entryDy=0;" edge="1" parent="1" source="QI3gRMH-cvcVh3Cv82Cy-11" target="QI3gRMH-cvcVh3Cv82Cy-9">
          <mxGeometry relative="1" as="geometry" />
        </mxCell>
        <mxCell id="QI3gRMH-cvcVh3Cv82Cy-11" value="&lt;div style=&quot;color: rgb(204, 204, 204); background-color: rgb(31, 31, 31); font-family: Consolas, &amp;quot;Courier New&amp;quot;, monospace; font-size: 14px; line-height: 19px; white-space: pre;&quot;&gt;&lt;span style=&quot;color: #ce9178;&quot;&gt;operations.cuh&lt;/span&gt;&lt;/div&gt;" style="rounded=0;whiteSpace=wrap;html=1;" vertex="1" parent="1">
          <mxGeometry x="700" y="121" width="110" height="20" as="geometry" />
        </mxCell>
        <mxCell id="QI3gRMH-cvcVh3Cv82Cy-14" style="edgeStyle=orthogonalEdgeStyle;rounded=0;orthogonalLoop=1;jettySize=auto;html=1;exitX=0.5;exitY=0;exitDx=0;exitDy=0;entryX=0.5;entryY=1;entryDx=0;entryDy=0;" edge="1" parent="1" source="QI3gRMH-cvcVh3Cv82Cy-12" target="QI3gRMH-cvcVh3Cv82Cy-9">
          <mxGeometry relative="1" as="geometry">
            <Array as="points">
              <mxPoint x="1080" y="70" />
              <mxPoint x="490" y="70" />
            </Array>
          </mxGeometry>
        </mxCell>
        <mxCell id="QI3gRMH-cvcVh3Cv82Cy-15" style="edgeStyle=orthogonalEdgeStyle;rounded=0;orthogonalLoop=1;jettySize=auto;html=1;exitX=0.5;exitY=0;exitDx=0;exitDy=0;entryX=0.5;entryY=1;entryDx=0;entryDy=0;" edge="1" parent="1" source="QI3gRMH-cvcVh3Cv82Cy-12" target="QI3gRMH-cvcVh3Cv82Cy-11">
          <mxGeometry relative="1" as="geometry" />
        </mxCell>
        <mxCell id="QI3gRMH-cvcVh3Cv82Cy-12" value="&lt;div style=&quot;color: rgb(204, 204, 204); background-color: rgb(31, 31, 31); font-family: Consolas, &amp;quot;Courier New&amp;quot;, monospace; font-size: 14px; line-height: 19px; white-space: pre;&quot;&gt;&lt;span style=&quot;color: #ce9178;&quot;&gt;cutil_subset.cuh&lt;/span&gt;&lt;/div&gt;" style="rounded=0;whiteSpace=wrap;html=1;" vertex="1" parent="1">
          <mxGeometry x="1020" y="211" width="120" height="20" as="geometry" />
        </mxCell>
        <mxCell id="QI3gRMH-cvcVh3Cv82Cy-17" style="edgeStyle=orthogonalEdgeStyle;rounded=0;orthogonalLoop=1;jettySize=auto;html=1;exitX=0.5;exitY=0;exitDx=0;exitDy=0;entryX=0.5;entryY=1;entryDx=0;entryDy=0;" edge="1" parent="1" source="QI3gRMH-cvcVh3Cv82Cy-16" target="QI3gRMH-cvcVh3Cv82Cy-11">
          <mxGeometry relative="1" as="geometry" />
        </mxCell>
        <mxCell id="QI3gRMH-cvcVh3Cv82Cy-16" value="&lt;div style=&quot;color: rgb(204, 204, 204); background-color: rgb(31, 31, 31); font-family: Consolas, &amp;quot;Courier New&amp;quot;, monospace; font-size: 14px; line-height: 19px; white-space: pre;&quot;&gt;&lt;span style=&quot;color: #ce9178;&quot;&gt;set_intersect.cuh&lt;/span&gt;&lt;/div&gt;" style="rounded=0;whiteSpace=wrap;html=1;" vertex="1" parent="1">
          <mxGeometry x="545" y="211" width="130" height="20" as="geometry" />
        </mxCell>
        <mxCell id="QI3gRMH-cvcVh3Cv82Cy-20" style="edgeStyle=orthogonalEdgeStyle;rounded=0;orthogonalLoop=1;jettySize=auto;html=1;exitX=0.5;exitY=0;exitDx=0;exitDy=0;entryX=0.5;entryY=1;entryDx=0;entryDy=0;" edge="1" parent="1" source="QI3gRMH-cvcVh3Cv82Cy-18" target="QI3gRMH-cvcVh3Cv82Cy-16">
          <mxGeometry relative="1" as="geometry" />
        </mxCell>
        <mxCell id="QI3gRMH-cvcVh3Cv82Cy-23" style="edgeStyle=orthogonalEdgeStyle;rounded=0;orthogonalLoop=1;jettySize=auto;html=1;exitX=0.5;exitY=0;exitDx=0;exitDy=0;entryX=0.5;entryY=1;entryDx=0;entryDy=0;" edge="1" parent="1" source="QI3gRMH-cvcVh3Cv82Cy-18" target="QI3gRMH-cvcVh3Cv82Cy-21">
          <mxGeometry relative="1" as="geometry" />
        </mxCell>
        <mxCell id="QI3gRMH-cvcVh3Cv82Cy-18" value="&lt;div style=&quot;color: rgb(204, 204, 204); background-color: rgb(31, 31, 31); font-family: Consolas, &amp;quot;Courier New&amp;quot;, monospace; font-size: 14px; line-height: 19px; white-space: pre;&quot;&gt;&lt;span style=&quot;color: #ce9178;&quot;&gt;search.cuh&lt;/span&gt;&lt;/div&gt;" style="rounded=0;whiteSpace=wrap;html=1;" vertex="1" parent="1">
          <mxGeometry x="570" y="301" width="80" height="20" as="geometry" />
        </mxCell>
        <mxCell id="QI3gRMH-cvcVh3Cv82Cy-22" style="edgeStyle=orthogonalEdgeStyle;rounded=0;orthogonalLoop=1;jettySize=auto;html=1;exitX=0.5;exitY=0;exitDx=0;exitDy=0;entryX=0.5;entryY=1;entryDx=0;entryDy=0;" edge="1" parent="1" source="QI3gRMH-cvcVh3Cv82Cy-21" target="QI3gRMH-cvcVh3Cv82Cy-11">
          <mxGeometry relative="1" as="geometry" />
        </mxCell>
        <mxCell id="QI3gRMH-cvcVh3Cv82Cy-21" value="&lt;div style=&quot;color: rgb(204, 204, 204); background-color: rgb(31, 31, 31); font-family: Consolas, &amp;quot;Courier New&amp;quot;, monospace; font-size: 14px; line-height: 19px; white-space: pre;&quot;&gt;&lt;span style=&quot;color: #ce9178;&quot;&gt;set_difference.cuh&lt;/span&gt;&lt;/div&gt;" style="rounded=0;whiteSpace=wrap;html=1;" vertex="1" parent="1">
          <mxGeometry x="700" y="211" width="140" height="20" as="geometry" />
        </mxCell>
        <mxCell id="QI3gRMH-cvcVh3Cv82Cy-24" value="CPU" style="rounded=0;whiteSpace=wrap;html=1;fillColor=#1ba1e2;fontColor=#ffffff;strokeColor=#006EAF;" vertex="1" parent="1">
          <mxGeometry x="110" y="-40" width="90" height="40" as="geometry" />
        </mxCell>
        <mxCell id="QI3gRMH-cvcVh3Cv82Cy-26" value="GPU" style="rounded=0;whiteSpace=wrap;html=1;fillColor=#a20025;fontColor=#ffffff;strokeColor=#6F0000;" vertex="1" parent="1">
          <mxGeometry x="110" y="-90" width="90" height="40" as="geometry" />
        </mxCell>
        <mxCell id="QI3gRMH-cvcVh3Cv82Cy-29" style="edgeStyle=orthogonalEdgeStyle;rounded=0;orthogonalLoop=1;jettySize=auto;html=1;exitX=0.5;exitY=1;exitDx=0;exitDy=0;" edge="1" parent="1" source="QI3gRMH-cvcVh3Cv82Cy-27" target="QI3gRMH-cvcVh3Cv82Cy-28">
          <mxGeometry relative="1" as="geometry" />
        </mxCell>
        <mxCell id="QI3gRMH-cvcVh3Cv82Cy-27" value="Graph Miner" style="rounded=0;whiteSpace=wrap;html=1;" vertex="1" parent="1">
          <mxGeometry x="1390" y="61" width="120" height="60" as="geometry" />
        </mxCell>
        <mxCell id="QI3gRMH-cvcVh3Cv82Cy-28" value="CSR" style="rounded=0;whiteSpace=wrap;html=1;" vertex="1" parent="1">
          <mxGeometry x="1390" y="210" width="120" height="60" as="geometry" />
        </mxCell>
        <mxCell id="QI3gRMH-cvcVh3Cv82Cy-33" style="edgeStyle=orthogonalEdgeStyle;rounded=0;orthogonalLoop=1;jettySize=auto;html=1;exitX=0.5;exitY=1;exitDx=0;exitDy=0;" edge="1" parent="1" source="QI3gRMH-cvcVh3Cv82Cy-34" target="QI3gRMH-cvcVh3Cv82Cy-35">
          <mxGeometry relative="1" as="geometry" />
        </mxCell>
        <mxCell id="QI3gRMH-cvcVh3Cv82Cy-34" value="Graph Miner" style="rounded=0;whiteSpace=wrap;html=1;" vertex="1" parent="1">
          <mxGeometry x="1610" y="61" width="120" height="60" as="geometry" />
        </mxCell>
        <mxCell id="QI3gRMH-cvcVh3Cv82Cy-35" value="CSR" style="rounded=0;whiteSpace=wrap;html=1;" vertex="1" parent="1">
          <mxGeometry x="1610" y="210" width="120" height="60" as="geometry" />
        </mxCell>
      </root>
    </mxGraphModel>
  </diagram>
</mxfile>
